<?xml version="1.0" standalone="no"?>
<!DOCTYPE svg PUBLIC "-//W3C//DTD SVG 20010904//EN"
 "http://www.w3.org/TR/2001/REC-SVG-20010904/DTD/svg10.dtd">
<svg version="1.0" xmlns="http://www.w3.org/2000/svg"
 width="460.000000pt" height="460.000000pt" viewBox="0 0 460.000000 460.000000"
 preserveAspectRatio="xMidYMid meet">
<metadata>
Created by potrace 1.14, written by Peter Selinger 2001-2017
</metadata>
<g transform="translate(0.000000,460.000000) scale(0.100000,-0.100000)"
fill="#000000" stroke="none">
<path d="M0 2300 l0 -2300 164 0 164 0 4 511 c3 346 7 513 15 517 6 4 13 64
17 137 4 72 12 132 17 133 5 2 9 18 9 34 0 37 26 191 46 270 8 32 14 71 14 88
0 16 4 30 9 30 4 0 12 32 15 70 4 39 11 70 16 70 5 0 12 32 16 70 3 39 10 70
14 70 4 0 10 17 13 38 4 20 16 69 27 107 11 39 23 85 27 103 3 17 9 32 14 32
4 0 11 25 14 55 4 30 11 55 15 55 4 0 11 20 14 45 4 25 11 45 16 45 13 0 21
63 31 245 5 94 14 233 20 310 7 77 14 166 16 198 3 31 8 57 13 57 4 0 11 32
14 70 4 39 11 70 17 70 5 0 9 28 9 63 0 77 32 150 69 155 28 4 161 -28 161
-39 0 -5 16 -11 35 -15 19 -3 35 -10 35 -14 0 -5 14 -11 30 -15 17 -4 30 -11
30 -16 0 -5 7 -9 15 -9 9 0 18 -6 21 -14 3 -8 16 -17 30 -20 13 -4 24 -11 24
-16 0 -6 7 -10 15 -10 8 0 15 -4 15 -9 0 -5 10 -13 22 -16 11 -4 31 -18 43
-31 12 -13 27 -24 34 -24 6 0 11 -5 11 -10 0 -6 11 -16 25 -22 13 -6 27 -19
30 -30 4 -10 12 -18 20 -18 15 0 57 -39 95 -89 14 -18 37 -45 53 -61 15 -16
27 -33 27 -39 0 -6 4 -11 10 -11 5 0 20 -18 32 -40 18 -31 29 -40 51 -40 15 0
27 3 27 8 0 8 85 28 180 42 30 5 87 13 125 19 39 6 176 11 305 11 l235 0 25
53 c13 28 30 58 37 65 7 7 13 20 13 28 0 8 5 14 10 14 6 0 10 7 10 15 0 9 7
18 15 21 8 4 15 13 15 20 0 15 39 76 53 82 4 2 7 8 7 13 0 11 207 219 218 219
4 0 19 11 34 25 14 13 38 27 51 30 14 4 28 13 31 21 3 8 15 14 26 14 11 0 20
4 20 8 0 11 110 62 134 62 34 0 106 -55 106 -82 0 -4 9 -17 19 -27 11 -11 25
-38 31 -60 6 -22 15 -43 20 -46 6 -3 10 -19 10 -36 0 -16 4 -29 9 -29 5 0 12
-31 16 -70 4 -38 11 -70 15 -70 5 0 12 -40 16 -90 3 -49 10 -90 15 -90 5 0 9
-21 9 -48 0 -26 4 -62 10 -81 5 -18 14 -97 20 -174 6 -78 15 -146 20 -151 6
-6 10 -20 10 -33 0 -13 4 -23 9 -23 5 0 12 -13 16 -30 4 -16 10 -30 15 -30 5
0 11 -13 15 -30 4 -16 11 -30 16 -30 5 0 9 -9 9 -20 0 -11 14 -46 30 -77 17
-31 30 -64 30 -74 0 -11 4 -19 9 -19 5 0 12 -22 16 -50 4 -27 10 -50 15 -50 4
0 10 -22 14 -50 4 -27 11 -50 16 -50 6 0 10 -13 10 -29 0 -16 7 -48 15 -71 8
-23 15 -55 15 -71 0 -16 4 -29 9 -29 5 0 12 -34 16 -75 4 -41 10 -75 15 -75 4
0 11 -38 15 -85 4 -47 11 -85 16 -85 5 0 9 -17 9 -37 0 -21 7 -65 15 -98 8
-33 14 -79 15 -102 0 -23 4 -53 10 -67 5 -14 12 -66 16 -116 4 -49 10 -90 14
-90 4 0 11 -64 15 -142 4 -79 11 -145 15 -148 5 -3 12 -94 16 -203 4 -108 10
-197 14 -197 4 0 10 -87 13 -192 4 -106 10 -212 13 -235 l7 -43 248 0 249 0 0
2300 0 2300 -2300 0 -2300 0 0 -2300z m2106 1905 c48 -20 69 -73 84 -210 6
-60 16 -143 21 -183 16 -130 12 -180 -16 -207 -48 -48 -131 -22 -154 48 -15
44 -71 399 -71 445 0 59 45 117 93 121 4 1 23 -6 43 -14z m102 -736 c96 -33
78 -172 -25 -186 -37 -5 -45 -2 -73 25 -48 49 -40 125 18 156 33 18 41 19 80
5z"/>
<path d="M3145 3454 c-11 -13 -30 -27 -42 -30 -13 -4 -23 -10 -23 -15 0 -5
-13 -21 -30 -36 -16 -14 -30 -30 -30 -35 0 -4 -17 -25 -39 -46 -21 -20 -41
-47 -45 -59 -4 -13 -12 -23 -17 -23 -5 0 -9 -5 -9 -11 0 -11 -58 -100 -71
-109 -4 -3 -11 -18 -14 -33 -4 -15 -11 -27 -15 -27 -4 0 -10 -18 -14 -40 -3
-22 -11 -40 -16 -40 -6 0 -10 -12 -10 -26 0 -14 -6 -32 -14 -40 -17 -16 -46
-19 -46 -4 0 6 -18 10 -40 10 -22 0 -40 -4 -40 -9 0 -4 -149 -10 -331 -13
-213 -3 -333 -8 -337 -15 -4 -6 -29 -13 -57 -16 -87 -9 -198 -28 -252 -43 -48
-14 -54 -13 -72 3 -12 10 -21 21 -21 25 0 4 -24 32 -52 61 -29 29 -60 64 -68
76 -8 13 -21 29 -27 37 -7 7 -13 15 -13 17 0 9 -149 157 -157 157 -5 0 -16 8
-25 18 -25 26 -46 42 -57 42 -5 0 -11 7 -15 15 -3 8 -12 15 -21 15 -8 0 -15 4
-15 9 0 5 -10 13 -22 17 -12 3 -28 13 -36 20 -7 8 -22 14 -33 14 -14 0 -19 -7
-19 -30 0 -16 -4 -30 -8 -30 -17 0 -37 -243 -38 -472 -1 -130 -5 -249 -8 -265
-10 -39 -30 -83 -38 -83 -3 0 -10 -25 -13 -55 -4 -30 -11 -55 -15 -55 -4 0
-11 -21 -15 -47 -4 -27 -10 -50 -14 -53 -3 -3 -14 -32 -25 -65 -10 -33 -25
-80 -32 -104 -8 -25 -14 -55 -14 -68 0 -13 -4 -23 -9 -23 -4 0 -12 -31 -15
-70 -4 -38 -11 -70 -15 -70 -4 0 -13 -30 -20 -67 -24 -128 -30 -158 -43 -230
-7 -40 -16 -73 -19 -73 -4 0 -10 -39 -14 -87 -4 -49 -11 -90 -15 -93 -5 -3
-12 -59 -16 -125 -4 -66 -10 -122 -14 -125 -10 -6 -33 -491 -34 -685 0 -82 4
-194 8 -247 l8 -98 1630 0 1630 0 -8 242 c-4 134 -10 245 -14 248 -4 3 -11 89
-15 193 -4 103 -11 187 -15 187 -4 0 -10 60 -14 133 -4 72 -12 134 -17 135 -5
2 -9 25 -9 50 0 26 -5 67 -11 91 -5 25 -14 79 -19 120 -14 120 -33 236 -41
241 -4 3 -10 42 -14 88 -4 45 -11 82 -15 82 -4 0 -11 32 -14 70 -4 39 -11 70
-15 70 -5 0 -11 21 -14 48 -3 26 -15 79 -27 117 -11 39 -23 85 -27 103 -3 17
-9 32 -13 32 -4 0 -11 20 -14 45 -4 25 -11 45 -16 45 -4 0 -11 23 -15 50 -4
28 -11 50 -15 50 -5 0 -11 13 -15 30 -4 16 -11 32 -16 35 -5 4 -9 15 -9 27 0
21 -29 80 -42 86 -5 2 -8 10 -8 17 0 8 -8 21 -17 31 -13 13 -19 38 -22 96 -2
43 -7 78 -11 78 -5 0 -10 33 -13 73 -6 96 -25 229 -43 299 -8 32 -14 67 -14
78 0 11 -4 20 -9 20 -5 0 -12 25 -16 55 -3 30 -10 55 -15 55 -5 0 -11 14 -15
30 -8 38 -41 40 -70 4z m-158 -1079 c54 -36 53 -167 -2 -181 -14 -3 -25 -10
-25 -15 0 -5 -18 -9 -40 -9 -22 0 -40 4 -40 9 0 5 -11 12 -25 15 -15 4 -27 16
-31 31 -3 14 -10 25 -15 25 -5 0 -9 14 -9 30 0 17 4 30 9 30 5 0 12 13 16 29
5 25 22 40 65 55 22 8 70 -2 97 -19z m-1541 -115 c32 -13 72 -53 85 -86 13
-35 1 -79 -33 -116 -26 -30 -35 -33 -82 -32 -45 0 -57 4 -80 28 -14 16 -26 35
-26 42 0 8 -4 14 -10 14 -5 0 -10 18 -10 40 0 22 5 40 10 40 6 0 10 6 10 13 0
15 25 37 60 54 32 15 43 15 76 3z m1054 -307 c13 -12 20 -30 20 -55 0 -37 -9
-50 -50 -78 -12 -8 -29 -22 -38 -30 -20 -19 -193 -21 -200 -2 -4 14 -72 17
-72 3 0 -5 -13 -12 -30 -16 -16 -4 -30 -10 -30 -14 0 -10 -90 -41 -117 -41
-31 0 -94 31 -120 59 -30 31 -31 90 -3 114 23 19 76 23 82 6 5 -15 87 -17 96
-3 4 6 18 15 32 19 14 4 28 13 32 19 10 15 191 13 196 -2 4 -14 52 -16 52 -3
0 5 14 12 30 16 17 4 30 11 30 16 0 16 69 10 90 -8z"/>
</g>
</svg>
